<?xml version="1.0" encoding="utf-8"?>
<!-- Generator: Adobe Illustrator 24.0.0, SVG Export Plug-In . SVG Version: 6.00 Build 0)  -->
<svg version="1.1" id="图层_1" xmlns="http://www.w3.org/2000/svg" xmlns:xlink="http://www.w3.org/1999/xlink" x="0px" y="0px"
	 viewBox="0 0 512 512" style="enable-background:new 0 0 512 512;" xml:space="preserve">
<path d="M440.8,403.3l-83.6-83.6c19-28.2,28.4-63.5,23.4-101.1c-8.6-63.9-61-116-125-124.1c-95.2-12-175.2,68-163.1,163.1
	c8.1,64,60.1,116.5,124.1,125c37.6,5,72.9-4.4,101.1-23.4l83.6,83.6c10.9,10.9,28.6,10.9,39.5,0
	C451.7,431.9,451.7,414.2,440.8,403.3z M146.5,238.6c0-49.3,40.1-89.4,89.4-89.4s89.4,40.1,89.4,89.4S285.3,328,236,328
	S146.5,287.9,146.5,238.6z"/>
</svg>
